<svg width="16" height="16" viewBox="0 0 16 16" fill="none" xmlns="http://www.w3.org/2000/svg">
<g clip-path="url(#clip0_1_415)">
<path d="M6 2C6 1.60444 6.1173 1.21776 6.33706 0.88886C6.55682 0.559962 6.86918 0.303617 7.23463 0.152242C7.60009 0.000866562 8.00222 -0.0387401 8.39018 0.0384303C8.77814 0.115601 9.13451 0.306082 9.41421 0.585787C9.69392 0.865492 9.8844 1.22186 9.96157 1.60982C10.0387 1.99778 9.99914 2.39992 9.84776 2.76537C9.69639 3.13082 9.44004 3.44318 9.11114 3.66294C8.78224 3.8827 8.39556 4 8 4C7.46957 4 6.96086 3.78929 6.58579 3.41421C6.21071 3.03914 6 2.53043 6 2ZM8 6C7.60444 6 7.21776 6.1173 6.88886 6.33706C6.55996 6.55682 6.30362 6.86918 6.15224 7.23463C6.00087 7.60009 5.96126 8.00222 6.03843 8.39018C6.1156 8.77814 6.30608 9.13451 6.58579 9.41421C6.86549 9.69392 7.22186 9.8844 7.60982 9.96157C7.99778 10.0387 8.39992 9.99914 8.76537 9.84776C9.13082 9.69639 9.44318 9.44004 9.66294 9.11114C9.8827 8.78224 10 8.39556 10 8C10 7.46957 9.78929 6.96086 9.41421 6.58579C9.03914 6.21071 8.53043 6 8 6ZM8 12C7.60444 12 7.21776 12.1173 6.88886 12.3371C6.55996 12.5568 6.30362 12.8692 6.15224 13.2346C6.00087 13.6001 5.96126 14.0022 6.03843 14.3902C6.1156 14.7781 6.30608 15.1345 6.58579 15.4142C6.86549 15.6939 7.22186 15.8844 7.60982 15.9616C7.99778 16.0387 8.39992 15.9991 8.76537 15.8478C9.13082 15.6964 9.44318 15.44 9.66294 15.1111C9.8827 14.7822 10 14.3956 10 14C10 13.4696 9.78929 12.9609 9.41421 12.5858C9.03914 12.2107 8.53043 12 8 12Z" fill="black"/>
</g>
<defs>
<clipPath id="clip0_1_415">
<rect width="16" height="16" fill="white"/>
</clipPath>
</defs>
</svg>
