<svg width="16" height="16" viewBox="0 0 16 16" fill="none" xmlns="http://www.w3.org/2000/svg">
<path d="M9.12999 8.00011L14.77 2.36011C14.9079 2.20793 14.982 2.00855 14.9769 1.80326C14.9719 1.59796 14.888 1.40247 14.7428 1.25726C14.5976 1.11205 14.4021 1.02825 14.1968 1.02319C13.9915 1.01814 13.7922 1.09222 13.64 1.23011L7.99999 6.87011L2.35999 1.23011C2.20781 1.09222 2.00843 1.01814 1.80314 1.02319C1.59784 1.02825 1.40235 1.11205 1.25714 1.25726C1.11193 1.40247 1.02812 1.59796 1.02307 1.80326C1.01802 2.00855 1.0921 2.20793 1.22999 2.36011L6.86999 8.00011L1.22999 13.6401C1.0921 13.7923 1.01802 13.9917 1.02307 14.197C1.02812 14.4023 1.11193 14.5977 1.25714 14.743C1.40235 14.8882 1.59784 14.972 1.80314 14.977C2.00843 14.9821 2.20781 14.908 2.35999 14.7701L7.99999 9.13011L13.64 14.7701C13.7922 14.908 13.9915 14.9821 14.1968 14.977C14.4021 14.972 14.5976 14.8882 14.7428 14.743C14.888 14.5977 14.9719 14.4023 14.9769 14.197C14.982 13.9917 14.9079 13.7923 14.77 13.6401L9.12999 8.00011Z" fill="currentColor"/>
</svg>
