<?xml version="1.0" encoding="UTF-8" standalone="no"?><svg xmlns="http://www.w3.org/2000/svg" xmlns:xlink="http://www.w3.org/1999/xlink"><symbol id="arrow-back" width="16" height="16" viewBox="0 0 16 16" fill="none" xmlns="http://www.w3.org/2000/svg"><path d="M1.38998 3.13475L4.48997 0.274754C4.68624 0.0944069 4.9461 -0.000589691 5.2124 0.0106625C5.4787 0.0219147 5.72963 0.138494 5.90998 0.334754C6.09032 0.531014 6.18532 0.790879 6.17407 1.05718C6.16281 1.32348 6.04624 1.57441 5.84998 1.75475L4.46998 3.01475H9.09998C10.6913 3.01475 12.2174 3.6469 13.3426 4.77211C14.4678 5.89733 15.1 7.42346 15.1 9.01475C15.1 10.6061 14.4678 12.1322 13.3426 13.2574C12.2174 14.3826 10.6913 15.0148 9.09998 15.0148C8.83476 15.0148 8.5804 14.9094 8.39287 14.7219C8.20533 14.5343 8.09998 14.28 8.09998 14.0148C8.09998 13.7495 8.20533 13.4952 8.39287 13.3076C8.5804 13.1201 8.83476 13.0148 9.09998 13.0148C10.1608 13.0148 11.1783 12.5933 11.9284 11.8432C12.6785 11.093 13.1 10.0756 13.1 9.01475C13.1 7.95389 12.6785 6.93647 11.9284 6.18633C11.1783 5.43618 10.1608 5.01475 9.09998 5.01475H4.46998L5.84998 6.27475C5.99982 6.41094 6.10479 6.5894 6.151 6.78653C6.19722 6.98367 6.1825 7.19019 6.1088 7.37878C6.0351 7.56737 5.90588 7.72914 5.73825 7.8427C5.57061 7.95626 5.37245 8.01626 5.16998 8.01475C4.91956 8.01195 4.67838 7.91974 4.48997 7.75475L1.40998 4.91475C1.2821 4.80207 1.17948 4.66365 1.10883 4.50856C1.03817 4.35346 1.00108 4.18518 0.999975 4.01475C1.00011 3.849 1.03487 3.6851 1.10203 3.53356C1.16919 3.38202 1.26727 3.24619 1.38998 3.13475Z" fill="currentColor"></path></symbol><symbol id="star" width="16" height="16" viewBox="0 0 16 16" fill="none" xmlns="http://www.w3.org/2000/svg"><path d="M7.99999 4.71L8.48999 6.3L8.80999 7.36H11.73L10.19 8.54L9.36999 9.17L9.66999 10.17L10.21 11.93L8.90999 10.93L7.99999 10.23L7.08999 10.93L5.78999 11.93L6.32999 10.17L6.62999 9.17L5.80999 8.54L4.26999 7.36H7.18999L7.50999 6.3L7.99999 4.71ZM7.99999 0.999995C7.87492 0.998817 7.75282 1.0381 7.6519 1.11199C7.55097 1.18588 7.47664 1.29041 7.43999 1.41L6.07999 5.86H1.58999C1.47959 5.8715 1.37468 5.91392 1.2873 5.98237C1.19992 6.05082 1.13363 6.14254 1.09603 6.24697C1.05844 6.35141 1.05106 6.46433 1.07476 6.57277C1.09845 6.68121 1.15226 6.78076 1.22999 6.86L4.88999 9.72999L3.50999 14.25C3.48326 14.3372 3.47746 14.4294 3.49306 14.5192C3.50866 14.6091 3.54521 14.694 3.59977 14.767C3.65432 14.8401 3.72532 14.8993 3.80702 14.9397C3.88872 14.9802 3.97882 15.0009 4.06999 15C4.19615 14.9966 4.31826 14.9547 4.41999 14.88L7.99999 12.12L11.58 14.87C11.6775 14.9536 11.8016 14.9997 11.93 15C12.0216 14.9992 12.1117 14.9771 12.1933 14.9355C12.2749 14.8938 12.3457 14.8337 12.4 14.76C12.4543 14.6863 12.4908 14.6009 12.5064 14.5106C12.522 14.4204 12.5164 14.3277 12.49 14.24L11.11 9.72999L14.77 6.91C14.8477 6.83076 14.9015 6.73121 14.9252 6.62277C14.9489 6.51433 14.9415 6.40141 14.9039 6.29697C14.8663 6.19254 14.8001 6.10082 14.7127 6.03237C14.6253 5.96392 14.5204 5.9215 14.41 5.91H9.91999L8.55999 1.41C8.52333 1.29041 8.449 1.18588 8.34808 1.11199C8.24716 1.0381 8.12506 0.998817 7.99999 0.999995Z" fill="currentColor"></path></symbol><symbol id="x" width="16" height="16" viewBox="0 0 16 16" fill="none" xmlns="http://www.w3.org/2000/svg"><path d="M9.12999 8.00011L14.77 2.36011C14.9079 2.20793 14.982 2.00855 14.9769 1.80326C14.9719 1.59796 14.888 1.40247 14.7428 1.25726C14.5976 1.11205 14.4021 1.02825 14.1968 1.02319C13.9915 1.01814 13.7922 1.09222 13.64 1.23011L7.99999 6.87011L2.35999 1.23011C2.20781 1.09222 2.00843 1.01814 1.80314 1.02319C1.59784 1.02825 1.40235 1.11205 1.25714 1.25726C1.11193 1.40247 1.02812 1.59796 1.02307 1.80326C1.01802 2.00855 1.0921 2.20793 1.22999 2.36011L6.86999 8.00011L1.22999 13.6401C1.0921 13.7923 1.01802 13.9917 1.02307 14.197C1.02812 14.4023 1.11193 14.5977 1.25714 14.743C1.40235 14.8882 1.59784 14.972 1.80314 14.977C2.00843 14.9821 2.20781 14.908 2.35999 14.7701L7.99999 9.13011L13.64 14.7701C13.7922 14.908 13.9915 14.9821 14.1968 14.977C14.4021 14.972 14.5976 14.8882 14.7428 14.743C14.888 14.5977 14.9719 14.4023 14.9769 14.197C14.982 13.9917 14.9079 13.7923 14.77 13.6401L9.12999 8.00011Z" fill="currentColor"></path></symbol><symbol id="star-fill" width="16" height="16" viewBox="0 0 16 16" fill="none" xmlns="http://www.w3.org/2000/svg"><path d="M8.56494 1.40442L9.93692 5.85625H14.4665C14.5779 5.86776 14.6837 5.91019 14.7719 5.97868C14.86 6.04716 14.9269 6.1389 14.9648 6.24338C15.0027 6.34786 15.0102 6.46083 14.9863 6.56931C14.9624 6.6778 14.9081 6.77739 14.8297 6.85666L11.1374 9.72783L12.5296 14.2397C12.5666 14.3576 12.5646 14.4842 12.524 14.601C12.4835 14.7178 12.4063 14.8187 12.3039 14.8891C12.2015 14.9594 12.0791 14.9954 11.9546 14.992C11.83 14.9886 11.7099 14.9458 11.6116 14.8699L8 12.1188L4.38844 14.8799C4.29012 14.9558 4.16995 14.9986 4.04542 15.002C3.92089 15.0054 3.79851 14.9694 3.69609 14.8991C3.59366 14.8287 3.51654 14.7278 3.47595 14.611C3.43536 14.4942 3.43342 14.3677 3.47042 14.2497L4.86258 9.72783L1.17032 6.90668C1.0919 6.82741 1.03763 6.72782 1.01372 6.61933C0.989816 6.51085 0.997256 6.39788 1.03518 6.2934C1.07311 6.18893 1.13999 6.09718 1.22814 6.0287C1.31628 5.96022 1.42212 5.91778 1.53349 5.90627H6.06307L7.43506 1.40442C7.47444 1.2867 7.55021 1.18427 7.65162 1.11167C7.75303 1.03907 7.87493 1 8 1C8.12507 1 8.24697 1.03907 8.34838 1.11167C8.44979 1.18427 8.52556 1.2867 8.56494 1.40442Z" fill="currentColor"></path></symbol></svg>